<svg width="168" height="32" viewBox="0 0 168 32" fill="none" xmlns="http://www.w3.org/2000/svg">
<path d="M16.5 0C7.7 0 0.5 7.2 0.5 16C0.5 24.8 7.7 32 16.5 32C25.3 32 32.5 24.8 32.5 16C32.5 7.2 25.3 0 16.5 0ZM24.6333 17.3333C24.9 19.7333 25.8333 22 27.1667 24C26.6333 24.6667 25.9667 25.3333 25.3 26C23.3 23.4667 22.1 20.5333 21.8333 17.3333H17.8333V29.2C17.4333 29.2 16.9 29.3333 16.5 29.3333C16.1 29.3333 15.5667 29.3333 15.1667 29.2V17.3333H11.1667C10.9 20.5333 9.7 23.4667 7.7 26C7.03333 25.3333 6.36667 24.6667 5.83333 24C7.3 22 8.23333 19.7333 8.36667 17.3333H3.3C3.16667 16.9333 3.16667 16.4 3.16667 16C3.16667 15.6 3.16667 15.0667 3.3 14.6667H8.5C8.23333 12.2667 7.3 10 5.83333 8C6.36667 7.33333 7.03333 6.66667 7.7 6C9.7 8.53333 10.9 11.4667 11.1667 14.6667H15.1667V2.8C15.5667 2.66667 16.1 2.66667 16.5 2.66667C16.9 2.66667 17.4333 2.66667 17.8333 2.8V14.6667H21.8333C22.1 11.4667 23.3 8.53333 25.3 6C25.9667 6.66667 26.6333 7.33333 27.1667 8C25.7 10 24.7667 12.2667 24.6333 14.6667H29.8333C29.8333 15.0667 29.9667 15.6 29.9667 16C29.9667 16.4 29.9667 16.9333 29.8333 17.3333H24.6333Z" fill="#23262F"/>
<path d="M52.5 7.248V9.96H45.516V14.256H50.868V16.92H45.516V24H42.156V7.248H52.5ZM56.1066 9.12C55.5146 9.12 55.0186 8.936 54.6186 8.568C54.2346 8.184 54.0426 7.712 54.0426 7.152C54.0426 6.592 54.2346 6.128 54.6186 5.76C55.0186 5.376 55.5146 5.184 56.1066 5.184C56.6986 5.184 57.1866 5.376 57.5706 5.76C57.9706 6.128 58.1706 6.592 58.1706 7.152C58.1706 7.712 57.9706 8.184 57.5706 8.568C57.1866 8.936 56.6986 9.12 56.1066 9.12ZM57.7626 10.704V24H54.4026V10.704H57.7626ZM64.5143 13.464V19.896C64.5143 20.344 64.6183 20.672 64.8263 20.88C65.0503 21.072 65.4183 21.168 65.9303 21.168H67.4903V24H65.3783C62.5463 24 61.1303 22.624 61.1303 19.872V13.464H59.5463V10.704H61.1303V7.416H64.5143V10.704H67.4903V13.464H64.5143ZM76.7949 10.512C78.3789 10.512 79.6589 11.016 80.6349 12.024C81.6109 13.016 82.0989 14.408 82.0989 16.2V24H78.7389V16.656C78.7389 15.6 78.4749 14.792 77.9469 14.232C77.4189 13.656 76.6989 13.368 75.7869 13.368C74.8589 13.368 74.1229 13.656 73.5789 14.232C73.0509 14.792 72.7869 15.6 72.7869 16.656V24H69.4269V10.704H72.7869V12.36C73.2349 11.784 73.8029 11.336 74.4909 11.016C75.1949 10.68 75.9629 10.512 76.7949 10.512ZM97.1741 17.064C97.1741 17.544 97.1421 17.976 97.0781 18.36H87.3581C87.4381 19.32 87.7741 20.072 88.3661 20.616C88.9581 21.16 89.6861 21.432 90.5501 21.432C91.7981 21.432 92.6861 20.896 93.2141 19.824H96.8381C96.4541 21.104 95.7181 22.16 94.6301 22.992C93.5421 23.808 92.2061 24.216 90.6221 24.216C89.3421 24.216 88.1901 23.936 87.1661 23.376C86.1581 22.8 85.3661 21.992 84.7901 20.952C84.2301 19.912 83.9501 18.712 83.9501 17.352C83.9501 15.976 84.2301 14.768 84.7901 13.728C85.3501 12.688 86.1341 11.888 87.1421 11.328C88.1501 10.768 89.3101 10.488 90.6221 10.488C91.8861 10.488 93.0141 10.76 94.0061 11.304C95.0141 11.848 95.7901 12.624 96.3341 13.632C96.8941 14.624 97.1741 15.768 97.1741 17.064ZM93.6941 16.104C93.6781 15.24 93.3661 14.552 92.7581 14.04C92.1501 13.512 91.4061 13.248 90.5261 13.248C89.6941 13.248 88.9901 13.504 88.4141 14.016C87.8541 14.512 87.5101 15.208 87.3821 16.104H93.6941ZM104.235 24.216C103.147 24.216 102.171 24.024 101.307 23.64C100.443 23.24 99.7546 22.704 99.2426 22.032C98.7466 21.36 98.4746 20.616 98.4266 19.8H101.811C101.875 20.312 102.123 20.736 102.555 21.072C103.003 21.408 103.555 21.576 104.211 21.576C104.851 21.576 105.347 21.448 105.699 21.192C106.067 20.936 106.251 20.608 106.251 20.208C106.251 19.776 106.027 19.456 105.579 19.248C105.147 19.024 104.451 18.784 103.491 18.528C102.499 18.288 101.683 18.04 101.043 17.784C100.419 17.528 99.8746 17.136 99.4106 16.608C98.9626 16.08 98.7386 15.368 98.7386 14.472C98.7386 13.736 98.9466 13.064 99.3626 12.456C99.7946 11.848 100.403 11.368 101.187 11.016C101.987 10.664 102.923 10.488 103.995 10.488C105.579 10.488 106.843 10.888 107.787 11.688C108.731 12.472 109.251 13.536 109.347 14.88H106.131C106.083 14.352 105.859 13.936 105.459 13.632C105.075 13.312 104.555 13.152 103.899 13.152C103.291 13.152 102.819 13.264 102.483 13.488C102.163 13.712 102.003 14.024 102.003 14.424C102.003 14.872 102.227 15.216 102.675 15.456C103.123 15.68 103.819 15.912 104.763 16.152C105.723 16.392 106.515 16.64 107.139 16.896C107.763 17.152 108.299 17.552 108.747 18.096C109.211 18.624 109.451 19.328 109.467 20.208C109.467 20.976 109.251 21.664 108.819 22.272C108.403 22.88 107.795 23.36 106.995 23.712C106.211 24.048 105.291 24.216 104.235 24.216ZM116.833 24.216C115.745 24.216 114.769 24.024 113.905 23.64C113.041 23.24 112.353 22.704 111.841 22.032C111.345 21.36 111.073 20.616 111.025 19.8H114.409C114.473 20.312 114.721 20.736 115.153 21.072C115.601 21.408 116.153 21.576 116.809 21.576C117.449 21.576 117.945 21.448 118.297 21.192C118.665 20.936 118.849 20.608 118.849 20.208C118.849 19.776 118.625 19.456 118.177 19.248C117.745 19.024 117.049 18.784 116.089 18.528C115.097 18.288 114.281 18.04 113.641 17.784C113.017 17.528 112.473 17.136 112.009 16.608C111.561 16.08 111.337 15.368 111.337 14.472C111.337 13.736 111.545 13.064 111.961 12.456C112.393 11.848 113.001 11.368 113.785 11.016C114.585 10.664 115.521 10.488 116.593 10.488C118.177 10.488 119.441 10.888 120.385 11.688C121.329 12.472 121.849 13.536 121.945 14.88H118.729C118.681 14.352 118.457 13.936 118.057 13.632C117.673 13.312 117.153 13.152 116.497 13.152C115.889 13.152 115.417 13.264 115.081 13.488C114.761 13.712 114.601 14.024 114.601 14.424C114.601 14.872 114.825 15.216 115.273 15.456C115.721 15.68 116.417 15.912 117.361 16.152C118.321 16.392 119.113 16.64 119.737 16.896C120.361 17.152 120.897 17.552 121.345 18.096C121.809 18.624 122.049 19.328 122.065 20.208C122.065 20.976 121.849 21.664 121.417 22.272C121.001 22.88 120.393 23.36 119.593 23.712C118.809 24.048 117.889 24.216 116.833 24.216ZM141.798 12.432C141.798 13.328 141.582 14.168 141.15 14.952C140.734 15.736 140.07 16.368 139.158 16.848C138.262 17.328 137.126 17.568 135.75 17.568H132.942V24H129.582V7.248H135.75C137.046 7.248 138.15 7.472 139.062 7.92C139.974 8.368 140.654 8.984 141.102 9.768C141.566 10.552 141.798 11.44 141.798 12.432ZM135.606 14.856C136.534 14.856 137.222 14.648 137.67 14.232C138.118 13.8 138.342 13.2 138.342 12.432C138.342 10.8 137.43 9.984 135.606 9.984H132.942V14.856H135.606ZM147.063 12.768C147.495 12.064 148.055 11.512 148.743 11.112C149.447 10.712 150.247 10.512 151.143 10.512V14.04H150.255C149.199 14.04 148.399 14.288 147.855 14.784C147.327 15.28 147.063 16.144 147.063 17.376V24H143.703V10.704H147.063V12.768ZM158.83 24.216C157.55 24.216 156.398 23.936 155.374 23.376C154.35 22.8 153.542 21.992 152.95 20.952C152.374 19.912 152.086 18.712 152.086 17.352C152.086 15.992 152.382 14.792 152.974 13.752C153.582 12.712 154.406 11.912 155.446 11.352C156.486 10.776 157.646 10.488 158.926 10.488C160.206 10.488 161.366 10.776 162.406 11.352C163.446 11.912 164.262 12.712 164.854 13.752C165.462 14.792 165.766 15.992 165.766 17.352C165.766 18.712 165.454 19.912 164.83 20.952C164.222 21.992 163.39 22.8 162.334 23.376C161.294 23.936 160.126 24.216 158.83 24.216ZM158.83 21.288C159.438 21.288 160.006 21.144 160.534 20.856C161.078 20.552 161.51 20.104 161.83 19.512C162.15 18.92 162.31 18.2 162.31 17.352C162.31 16.088 161.974 15.12 161.302 14.448C160.646 13.76 159.838 13.416 158.878 13.416C157.918 13.416 157.11 13.76 156.454 14.448C155.814 15.12 155.494 16.088 155.494 17.352C155.494 18.616 155.806 19.592 156.43 20.28C157.07 20.952 157.87 21.288 158.83 21.288Z" fill="#23262F"/>
</svg>
