<svg width="48" height="48" viewBox="0 0 48 48" fill="none" xmlns="http://www.w3.org/2000/svg">
<path fill-rule="evenodd" clip-rule="evenodd" d="M24 44C31.732 44 38 37.732 38 30C38 22.268 31.732 16 24 16C16.268 16 10 22.268 10 30C10 37.732 16.268 44 24 44ZM24 48C33.9411 48 42 39.9411 42 30C42 20.0589 33.9411 12 24 12C14.0589 12 6 20.0589 6 30C6 39.9411 14.0589 48 24 48Z" fill="#23262F"/>
<path fill-rule="evenodd" clip-rule="evenodd" d="M17.7076 6C14.7341 6 12.8001 9.12925 14.1299 11.7889L15.7882 15.1056C16.2822 16.0935 15.8818 17.2949 14.8938 17.7889C13.9059 18.2828 12.7045 17.8824 12.2105 16.8944L10.5522 13.5777C7.89256 8.2585 11.7605 2 17.7076 2H30.2912C36.2382 2 40.1062 8.2585 37.4466 13.5777L35.7882 16.8944C35.2943 17.8824 34.0929 18.2828 33.105 17.7889C32.117 17.2949 31.7166 16.0935 32.2105 15.1056L33.8689 11.7889C35.1987 9.12925 33.2647 6 30.2912 6H17.7076Z" fill="#23262F"/>
</svg>
