<svg width="48" height="48" viewBox="0 0 48 48" fill="none" xmlns="http://www.w3.org/2000/svg">
<path fill-rule="evenodd" clip-rule="evenodd" d="M24 40C32.8366 40 40 32.8366 40 24C40 15.1634 32.8366 8 24 8C15.1634 8 8 15.1634 8 24C8 32.8366 15.1634 40 24 40ZM24 44C35.0457 44 44 35.0457 44 24C44 12.9543 35.0457 4 24 4C12.9543 4 4 12.9543 4 24C4 35.0457 12.9543 44 24 44Z" fill="#23262F"/>
<path d="M11.9992 40.001C16.857 36.3521 19.9992 30.5428 19.9992 23.9995C19.9992 17.4562 16.857 11.6469 11.9992 7.99805C10.9074 8.81811 9.90227 9.74731 9 10.7694C13.2251 13.6495 15.9992 18.5005 15.9992 23.9995C15.9992 29.4985 13.2251 34.3496 9 37.2296C9.90227 38.2517 10.9074 39.1809 11.9992 40.001Z" fill="#23262F"/>
<path d="M35.9992 7.99805C31.1414 11.6469 27.9992 17.4562 27.9992 23.9995C27.9992 30.5428 31.1414 36.3521 35.9992 40.001C37.0909 39.1809 38.0961 38.2517 38.9983 37.2296C34.7733 34.3496 31.9992 29.4985 31.9992 23.9995C31.9992 18.5005 34.7733 13.6495 38.9983 10.7694C38.0961 9.74731 37.0909 8.81812 35.9992 7.99805Z" fill="#23262F"/>
</svg>
