<svg width="196" height="20" viewBox="0 0 196 20" fill="none" xmlns="http://www.w3.org/2000/svg">
<path fill-rule="evenodd" clip-rule="evenodd" d="M10.0003 16.667C13.6822 16.667 16.667 13.6822 16.667 10.0003C16.667 6.31843 13.6822 3.33366 10.0003 3.33366C6.31843 3.33366 3.33366 6.31843 3.33366 10.0003C3.33366 13.6822 6.31843 16.667 10.0003 16.667ZM10.0003 18.3337C14.6027 18.3337 18.3337 14.6027 18.3337 10.0003C18.3337 5.39795 14.6027 1.66699 10.0003 1.66699C5.39795 1.66699 1.66699 5.39795 1.66699 10.0003C1.66699 14.6027 5.39795 18.3337 10.0003 18.3337Z" fill="#777E91"/>
<path d="M10.0003 8.33301C10.0003 7.87277 10.3734 7.49967 10.8337 7.49967H11.667C12.1272 7.49967 12.5003 7.12658 12.5003 6.66634C12.5003 6.20611 12.1272 5.83301 11.667 5.83301H10.8337C9.45291 5.83301 8.33366 6.9523 8.33366 8.33301V9.99967H7.50033C7.04009 9.99967 6.66699 10.3728 6.66699 10.833C6.66699 11.2933 7.04008 11.6663 7.50033 11.6663H8.33366V16.6663C8.33366 17.1266 8.70674 17.4997 9.16699 17.4997C9.62724 17.4997 10.0003 17.1266 10.0003 16.6663V11.6663H11.667C12.1272 11.6663 12.5003 11.2933 12.5003 10.833C12.5003 10.3728 12.1272 9.99967 11.667 9.99967H10.0003V8.33301Z" fill="#777E91"/>
<path fill-rule="evenodd" clip-rule="evenodd" d="M46.6502 11.6665C45.2721 11.6704 44.3825 13.2403 45.2315 14.4298C46.4473 16.133 48.6521 17.5 52.333 17.5C58.0372 17.5 62.6161 12.8514 61.9751 7.35925L62.9141 5.48108C63.5654 4.17857 62.4337 2.69685 61.0057 2.98245L59.7651 3.23057C59.4361 3.05702 59.0957 2.92606 58.8048 2.83117C58.2378 2.64627 57.5516 2.5 56.9163 2.5C55.7752 2.5 54.7904 2.79276 54.0077 3.37994C53.234 3.96053 52.7981 4.72354 52.559 5.42421C52.4487 5.74717 52.3753 6.07112 52.3282 6.38203C51.8855 6.24269 51.434 6.05522 50.9921 5.82629C49.9894 5.30693 49.1786 4.64852 48.7213 4.07126C47.9539 3.10275 46.3277 3.17456 45.7571 4.43351C44.9528 6.20789 45.1734 8.31122 45.8963 10.0108C46.1387 10.5803 46.4539 11.1434 46.839 11.6652C46.773 11.666 46.71 11.6663 46.6502 11.6665ZM52.3329 15.8333C49.1134 15.8333 47.4487 14.6672 46.5879 13.4614C46.5492 13.4072 46.5882 13.3333 46.6548 13.3332C47.5305 13.3307 49.328 13.2892 50.5135 12.5954C50.5748 12.5595 50.5613 12.4691 50.494 12.4465C47.7305 11.5173 46.1597 7.58216 47.275 5.12158C47.3005 5.06517 47.3764 5.05772 47.4149 5.10628C48.6889 6.71432 51.4746 8.28933 53.8982 8.33242C53.9508 8.33333 53.9906 8.28558 53.9826 8.23361C53.8849 7.60044 53.512 4.16667 56.9162 4.16667C57.7291 4.16667 58.9386 4.56319 59.3841 4.96942C59.4047 4.98819 59.4326 4.99672 59.46 4.99125L61.3325 4.61675C61.4005 4.60315 61.4544 4.67371 61.4234 4.73573L60.262 7.05849C60.2539 7.07462 60.2514 7.09312 60.2545 7.11088C61.0679 11.6833 57.3229 15.8333 52.3329 15.8333Z" fill="#777E91"/>
<path fill-rule="evenodd" clip-rule="evenodd" d="M101.334 3.33366H94.667C92.826 3.33366 91.3337 4.82604 91.3337 6.66699V13.3337C91.3337 15.1746 92.826 16.667 94.667 16.667H101.334C103.175 16.667 104.667 15.1746 104.667 13.3337V6.66699C104.667 4.82604 103.175 3.33366 101.334 3.33366ZM94.667 1.66699C91.9056 1.66699 89.667 3.90557 89.667 6.66699V13.3337C89.667 16.0951 91.9056 18.3337 94.667 18.3337H101.334C104.095 18.3337 106.334 16.0951 106.334 13.3337V6.66699C106.334 3.90557 104.095 1.66699 101.334 1.66699H94.667Z" fill="#777E91"/>
<path d="M102.166 6.66667C102.627 6.66667 103 6.29357 103 5.83333C103 5.3731 102.627 5 102.166 5C101.706 5 101.333 5.3731 101.333 5.83333C101.333 6.29357 101.706 6.66667 102.166 6.66667Z" fill="#777E91"/>
<path fill-rule="evenodd" clip-rule="evenodd" d="M102.166 9.99967C102.166 12.3008 100.301 14.1663 97.9997 14.1663C95.6985 14.1663 93.833 12.3008 93.833 9.99967C93.833 7.69849 95.6985 5.83301 97.9997 5.83301C100.301 5.83301 102.166 7.69849 102.166 9.99967ZM100.5 9.99967C100.5 11.3804 99.3804 12.4997 97.9997 12.4997C96.6189 12.4997 95.4997 11.3804 95.4997 9.99967C95.4997 8.61892 96.6189 7.49967 97.9997 7.49967C99.3804 7.49967 100.5 8.61892 100.5 9.99967Z" fill="#777E91"/>
<path fill-rule="evenodd" clip-rule="evenodd" d="M142 16.667C145.682 16.667 148.667 13.6822 148.667 10.0003C148.667 6.31843 145.682 3.33366 142 3.33366C138.318 3.33366 135.334 6.31843 135.334 10.0003C135.334 13.6822 138.318 16.667 142 16.667ZM142 18.3337C146.603 18.3337 150.334 14.6027 150.334 10.0003C150.334 5.39795 146.603 1.66699 142 1.66699C137.398 1.66699 133.667 5.39795 133.667 10.0003C133.667 14.6027 137.398 18.3337 142 18.3337Z" fill="#777E91"/>
<path d="M144.895 17.8169C144.6 15.7084 144.107 13.7949 143.413 11.986C141.714 12.8095 139.814 14.2485 137.202 16.8144C136.745 16.4919 136.322 16.1246 135.939 15.7189C138.682 13.0133 140.778 11.3956 142.764 10.4489C142.509 9.89662 142.234 9.3522 141.939 8.81278C139.602 9.54962 136.936 9.93787 133.667 9.99337C133.667 9.42137 133.726 8.86278 133.836 8.32318C136.721 8.26137 139.055 7.92746 141.074 7.334C140.137 5.82958 139.038 4.34462 137.775 2.816C138.268 2.52577 138.792 2.28472 139.343 2.09961C140.617 3.66591 141.734 5.20534 142.69 6.77966C144.486 6.06962 146.079 5.11131 147.668 3.89123C148.077 4.27043 148.447 4.69011 148.773 5.14388C147.12 6.42263 145.434 7.45905 143.525 8.24035C143.806 8.76512 144.069 9.2957 144.315 9.8342C146.204 9.23578 148.064 9.17395 150.293 9.16762C150.32 9.44145 150.334 9.71928 150.334 10.0003C150.334 10.2819 150.32 10.5602 150.292 10.8346C148.139 10.8423 146.542 10.903 144.964 11.3778C145.642 13.1407 146.143 15.0044 146.464 17.0384C145.974 17.3501 145.448 17.612 144.895 17.8169Z" fill="#777E91"/>
<g clip-path="url(#clip0_10799_9047)">
<path d="M190.166 3.33301C189.706 3.33301 189.333 3.70611 189.333 4.16634C189.333 4.62657 189.706 4.99967 190.166 4.99967H193.5C193.96 4.99967 194.333 4.62657 194.333 4.16634C194.333 3.70611 193.96 3.33301 193.5 3.33301H190.166Z" fill="#777E91"/>
<path fill-rule="evenodd" clip-rule="evenodd" d="M187.667 10.8337C187.667 8.53249 189.532 6.66699 191.834 6.66699C194.135 6.66699 196 8.53249 196 10.8337V11.667C196 12.1272 195.627 12.5003 195.167 12.5003H189.334C189.334 13.8811 190.453 15.0003 191.834 15.0003C192.415 15.0003 192.95 14.802 193.374 14.4693C193.596 14.2955 193.858 14.167 194.14 14.167C194.854 14.167 195.311 14.9046 194.811 15.4149C194.055 16.1875 193 16.667 191.834 16.667C189.532 16.667 187.667 14.8015 187.667 12.5003V10.8337ZM191.834 8.33366C190.453 8.33366 189.334 9.45291 189.334 10.8337H194.334C194.334 9.45291 193.214 8.33366 191.834 8.33366Z" fill="#777E91"/>
<path fill-rule="evenodd" clip-rule="evenodd" d="M177.667 4.99967V8.33301H181.833C182.754 8.33301 183.5 7.58682 183.5 6.66634C183.5 5.74587 182.754 4.99967 181.833 4.99967H177.667ZM184.166 9.04701C184.784 8.44201 185.167 7.5989 185.167 6.66634C185.167 4.82539 183.674 3.33301 181.833 3.33301H177.333C176.597 3.33301 176 3.92997 176 4.66634V15.2378C176 16.0268 176.64 16.6663 177.429 16.6663H181.833C184.135 16.6663 186 14.8008 186 12.4997C186 11.0629 185.273 9.79609 184.166 9.04701ZM177.667 9.99967V14.9997H181.833C183.214 14.9997 184.333 13.8804 184.333 12.4997C184.333 11.1189 183.214 9.99967 181.833 9.99967H177.667Z" fill="#777E91"/>
</g>
<defs>
<clipPath id="clip0_10799_9047">
<rect width="20" height="20" fill="white" transform="translate(176)"/>
</clipPath>
</defs>
</svg>
