<svg width="68" height="24" viewBox="0 0 68 24" fill="none" xmlns="http://www.w3.org/2000/svg">
<path fill-rule="evenodd" clip-rule="evenodd" d="M9.90906 7.26521C9.50324 6.8906 8.87058 6.9159 8.49597 7.32172L5.2652 10.8217C4.9116 11.2047 4.9116 11.7952 5.26519 12.1782L8.49597 15.6783C8.87057 16.0841 9.50323 16.1094 9.90905 15.7348C10.3149 15.3602 10.3402 14.7276 9.96558 14.3217L8.28397 12.5L18 12.5C18.5523 12.5 19 12.0523 19 11.5C19 10.9477 18.5523 10.5 18 10.5L8.284 10.5L9.96557 8.67829C10.3402 8.27247 10.3149 7.63981 9.90906 7.26521Z" fill="#777E91"/>
<path fill-rule="evenodd" clip-rule="evenodd" d="M58.0909 7.26521C58.4968 6.8906 59.1294 6.9159 59.504 7.32172L62.7348 10.8217C63.0884 11.2047 63.0884 11.7952 62.7348 12.1782L59.504 15.6783C59.1294 16.0841 58.4968 16.1094 58.091 15.7348C57.6851 15.3602 57.6598 14.7276 58.0344 14.3217L59.716 12.5L50 12.5C49.4477 12.5 49 12.0523 49 11.5C49 10.9477 49.4477 10.5 50 10.5L59.716 10.5L58.0344 8.67829C57.6598 8.27247 57.6851 7.63981 58.0909 7.26521Z" fill="#23262F"/>
</svg>
